<?xml version="1.0" encoding="UTF-8"?>
<!DOCTYPE svg PUBLIC "-//W3C//DTD SVG 1.1//EN" "http://www.w3.org/Graphics/SVG/1.1/DTD/svg11.dtd">
<!-- Creator: CorelDRAW -->
<svg xmlns="http://www.w3.org/2000/svg" xml:space="preserve" width="153.494mm" height="159.131mm" style="shape-rendering:geometricPrecision; text-rendering:geometricPrecision; image-rendering:optimizeQuality; fill-rule:evenodd; clip-rule:evenodd"
viewBox="0 0 157.47 163.253"
 xmlns:xlink="http://www.w3.org/1999/xlink">
 <defs>
  <style type="text/css">
   <![CDATA[
    .fil0 {fill:#002B5E}
    .fil1 {fill:#908E8E;fill-rule:nonzero}
    .fil2 {fill:#002B5E;fill-rule:nonzero}
   ]]>
  </style>
 </defs>
 <g id="Capa_x0020_1">
  <metadata id="CorelCorpID_0Corel-Layer"/>
  <path class="fil0" d="M112.807 97.6394c0,1.85002 -7.53056,3.36128 -16.4687,3.36128 -8.78135,0 -13.6022,-4.50783 -21.9407,-4.50783 -3.75215,0 -9.71954,0.88587 -17.8496,2.65781 -8.10404,1.77194 -14.6185,2.65802 -19.4914,2.65802 -10.2928,0 -18.6055,-4.69065 -24.7812,-14.2017 -4.92496,-7.55682 1.85022,-18.9701 2.78821,-24.9635l0.416826 -2.55358c4.32573,1.45915 -0.964146,11.5697 2.50167,21.4455 3.02273,8.6252 8.78165,12.9769 17.459,12.9769 14.5403,0 30.592,-6.93133 43.8295,-5.7067 5.81073,0.52116 10.7357,3.33532 16.651,4.7166 0,0 2.99657,0.234522 8.9378,0.990102 3.25725,0.416928 7.94769,1.14655 7.94769,3.12706z"/>
  <path class="fil1" d="M151.685 159.475l0 -1.27695 2.16282 0 -1.25078 -3.28321c-0.365017,-0.990102 -0.651655,-1.82406 -0.833959,-2.44945 -0.0259554,0.130187 -0.0522186,0.286638 -0.0780714,0.442986l0 -1.69377 0.964146 0 4.82063 11.8303 -1.77194 0 -1.38107 -3.56995 -2.63176 0zm0 -18.6314l0 0 0 -1.40724c0.416826,-0.0259554 0.75558,-0.0780714 1.04222,-0.182406 0.443089,-0.156348 0.807798,-0.338754 1.06848,-0.625392 0.36471,-0.36471 0.651348,-0.859914 0.859914,-1.48531 0.208259,-0.625392 0.312491,-1.38107 0.312491,-2.29311 0,-1.22483 -0.208259,-2.18898 -0.625392,-2.84032 -0.390665,-0.677508 -0.885767,-1.12039 -1.45904,-1.35512 -0.286638,-0.104027 -0.703772,-0.182303 -1.19867,-0.208362l0 -1.40713c0.521058,0.0261606 0.964146,0.0780714 1.3029,0.156348 0.677508,0.156451 1.25078,0.443089 1.71983,0.833754 0.625392,0.547321 1.09433,1.22483 1.40693,2.03263 0.286638,0.833959 0.443089,1.77194 0.443089,2.81427 0,0.91203 -0.104335,1.69377 -0.312594,2.39734 -0.208567,0.703669 -0.469044,1.27695 -0.808004,1.71983 -0.312594,0.468942 -0.677303,0.807696 -1.06817,1.06838 -0.390973,0.260683 -0.859914,0.469044 -1.40724,0.599437 -0.390973,0.104129 -0.807798,0.156245 -1.27674,0.182406zm0 -11.8044l0 0 0 1.40713c-0.260785,-0.026058 -0.52116,-0.026058 -0.833959,-0.026058l-2.47551 0 0 9.04203 2.52763 0c0.286638,0 0.521058,0 0.781843,-0.0259554l0 1.40724c-0.208567,0.0259554 -0.390973,0.0259554 -0.599539,0.0259554l-4.24735 0 0 -11.8563 4.03909 0c0.286638,0 0.547013,0.0259554 0.807798,0.0259554zm0 22.1754l0 0 0 1.69377c-0.156451,0.599334 -0.338857,1.19867 -0.547321,1.798l-1.3028 3.49167 1.85012 0 0 1.27695 -2.29311 0 -1.303 3.56995 -1.64165 0 4.50804 -11.8303 0.729727 0zm-16.3125 11.3353l0 0 0 -1.69387c0.104335,-0.0780714 0.208567,-0.156348 0.312901,-0.234522l0 -2.21493 -0.312901 0 0 -1.38107 1.82406 -0.0261606 0 4.4038c-0.573276,0.469249 -1.19867,0.859914 -1.82406,1.14676zm0 -8.33856l0 0 0 -2.34522c0.312901,0.208362 0.547321,0.442884 0.755888,0.703464 0.390665,0.52116 0.703464,1.14655 0.91203,1.95435l-1.40724 0.39087c-0.0780714,-0.260683 -0.156348,-0.495102 -0.260683,-0.703464zm0 -16.9378l0 0 0 -1.27684 2.00667 0 -1.22483 -3.28341c-0.338754,-0.859914 -0.599232,-1.61549 -0.781843,-2.21473l0 -1.48531 0.808004 0 4.82063 11.8563 -1.77194 0 -1.38097 -3.59601 -2.47572 0zm0 -8.26029l0 0 0 1.48531c-0.0259554,-0.0782766 -0.052116,-0.156451 -0.052116,-0.234522 -0.156143,0.75558 -0.36471,1.51126 -0.651348,2.26694l-1.303 3.46572 2.00647 0 0 1.27684 -2.44925 0 -1.27695 3.59601 -1.66771 0 4.53399 -11.8563 0.859914 0zm0 22.8529l0 0 0 2.34522c-0.130187,-0.286638 -0.260375,-0.521365 -0.416826,-0.729727 -0.260478,-0.338754 -0.625392,-0.625392 -1.12039,-0.833856 -0.495102,-0.182406 -1.01626,-0.312696 -1.6157,-0.312696 -0.729727,0 -1.32896,0.13029 -1.85002,0.338857 -0.52116,0.208259 -0.938294,0.494897 -1.25089,0.859812 -0.338754,0.364812 -0.573276,0.755682 -0.75558,1.17261 -0.286638,0.729624 -0.443089,1.53742 -0.443089,2.39734 0,1.04222 0.182406,1.92829 0.547321,2.63186 0.338549,0.729624 0.88587,1.25078 1.56338,1.58954 0.703566,0.338754 1.43319,0.52116 2.21503,0.52116 0.677508,0 1.32886,-0.13029 1.9802,-0.390973 0.469249,-0.182303 0.859914,-0.390665 1.14655,-0.599232l0 1.69387c-0.182303,0.104027 -0.36471,0.182303 -0.547013,0.234522 -0.807798,0.312594 -1.64176,0.468942 -2.50167,0.468942 -1.14655,0 -2.21503,-0.234522 -3.15292,-0.75558 -0.938294,-0.495205 -1.66771,-1.19867 -2.13676,-2.13686 -0.495102,-0.964249 -0.729624,-2.00647 -0.729624,-3.17897 0,-1.14655 0.234522,-2.21503 0.729624,-3.2313 0.469044,-0.990204 1.17251,-1.71983 2.05838,-2.21493 0.91203,-0.495 1.9284,-0.729522 3.12706,-0.729522 0.833959,0 1.6157,0.130187 2.293,0.416826 0.312901,0.13029 0.599539,0.286638 0.859914,0.443089zm0 5.15938l0 0 -3.15292 0 0 1.38107 3.15292 0 0 -1.38107zm-15.713 -16.1819l0 0 0 -1.40724c0.417133,-0.0259554 0.781843,-0.0780714 1.06848,-0.182406 0.442986,-0.156348 0.781843,-0.338754 1.04222,-0.625392 0.365017,-0.36471 0.651655,-0.859914 0.859914,-1.48531 0.208567,-0.625392 0.312799,-1.38107 0.312799,-2.29311 0,-1.22483 -0.208464,-2.18898 -0.599437,-2.84032 -0.416826,-0.677508 -0.91203,-1.12039 -1.48531,-1.35512 -0.286638,-0.104027 -0.677303,-0.182303 -1.19867,-0.208362l0 -1.40713c0.547321,0.0261606 0.964146,0.0780714 1.303,0.156348 0.677508,0.156451 1.25078,0.443089 1.74599,0.833754 0.599232,0.547321 1.06838,1.22483 1.38097,2.03263 0.312594,0.833959 0.469044,1.77194 0.469044,2.81427 0,0.91203 -0.104335,1.69377 -0.312594,2.39734 -0.208567,0.703669 -0.469044,1.27695 -0.807798,1.71983 -0.338754,0.468942 -0.677508,0.807696 -1.06838,1.06838 -0.390973,0.260683 -0.859914,0.469044 -1.40724,0.599437 -0.390973,0.104129 -0.833754,0.156245 -1.303,0.182406zm0 -11.8044l0 0 0 1.40713c-0.234522,-0.026058 -0.52116,-0.026058 -0.807798,-0.026058l-2.47541 0 0 9.04203 2.50167 0c0.286638,0 0.547013,0 0.781535,-0.0259554l0 1.40724c-0.182303,0.0259554 -0.390665,0.0259554 -0.599232,0.0259554l-4.24735 0 0 -11.8563 4.06505 0c0.286638,0 0.547013,0.0259554 0.781535,0.0259554zm-8.07788 30.4358l0 0 0 -1.27695 2.00647 0 -1.22462 -3.28321c-0.338754,-0.886075 -0.599437,-1.61549 -0.781843,-2.24089l0 -1.45935 0.807798 0 4.84679 11.8303 -1.7979 0 -1.35502 -3.56995 -2.50167 0zm0 -8.26039l0 0 0 1.45935c0,-0.0783792 -0.0259554,-0.156451 -0.052116,-0.208567 -0.156451,0.755682 -0.36471,1.51147 -0.651348,2.24099l-1.27705 3.49167 1.98051 0 0 1.27695 -2.42329 0 -1.3029 3.56995 -1.66771 0 4.53399 -11.8303 0.859914 0zm-33.2239 10.5535l0 0 0 -4.27351 2.26684 5.55036 -1.77194 0 -0.494897 -1.27684zm0 -25.9277l0 0 0 -1.58954 0.234522 0c0.703464,0 1.27674,-0.078174 1.66761,-0.208362 0.390973,-0.156451 0.703566,-0.390973 0.91203,-0.729727 0.208567,-0.312799 0.312594,-0.677508 0.312594,-1.06838 0,-0.547116 -0.208259,-1.01637 -0.599232,-1.38107 -0.416826,-0.338754 -1.04222,-0.52116 -1.92829,-0.52116l-0.599232 0 0 -1.32886 0.547116 0c1.04222,0 1.85022,0.130187 2.39734,0.338754 0.547321,0.208362 0.964146,0.573276 1.3029,1.12039 0.338754,0.547218 0.495205,1.12049 0.495205,1.77194 0,0.859914 -0.260683,1.56358 -0.807798,2.13686 -0.547321,0.573276 -1.38128,0.937986 -2.52783,1.09433 0.417133,0.208362 0.729727,0.390973 0.964249,0.599334 0.442986,0.416826 0.886075,0.938191 1.27695,1.56358l2.05858 3.23109 -1.95456 0 -1.56338 -2.47551c-0.468942,-0.703464 -0.833959,-1.25078 -1.1206,-1.61549 -0.312594,-0.39087 -0.573276,-0.651553 -0.807696,-0.808004 -0.0780714,-0.052116 -0.156245,-0.104027 -0.260478,-0.130187zm11.2309 1.22483l0 0 1.45935 -0.130393c0.0780714,0.599334 0.234522,1.06838 0.494897,1.45925 0.260683,0.390973 0.651655,0.677611 1.17271,0.91203 0.547116,0.234522 1.14655,0.364812 1.82416,0.364812 0.599129,0 1.12029,-0.104335 1.56338,-0.260478 0.468942,-0.182611 0.807696,-0.443089 1.01626,-0.729727 0.234522,-0.312799 0.338754,-0.651553 0.338754,-1.01626 0,-0.39087 -0.104232,-0.703566 -0.312799,-0.990204 -0.234522,-0.26058 -0.573276,-0.495102 -1.06817,-0.703669 -0.312799,-0.104027 -1.01637,-0.312594 -2.1107,-0.573276 -1.06848,-0.260478 -1.82416,-0.495 -2.26715,-0.729419 -0.547116,-0.286638 -0.964146,-0.677611 -1.25078,-1.09464 -0.286638,-0.442781 -0.416928,-0.937986 -0.416928,-1.48531 0,-0.599232 0.182406,-1.14655 0.495205,-1.66761 0.338754,-0.52116 0.833754,-0.938088 1.48531,-1.19867 0.651348,-0.26058 1.38107,-0.390973 2.16282,-0.390973 0.88587,0 1.64155,0.130393 2.31906,0.417031 0.677508,0.286638 1.17271,0.703566 1.53742,1.25089 0.36471,0.547116 0.547321,1.17251 0.573276,1.85002l-1.48531 0.13029c-0.0780714,-0.755682 -0.36471,-1.32896 -0.833959,-1.69367 -0.442781,-0.390973 -1.14655,-0.573276 -2.03232,-0.573276 -0.964249,0 -1.64176,0.156143 -2.05858,0.521058 -0.443089,0.338857 -0.651655,0.755682 -0.651655,1.25089 0,0.416826 0.156451,0.781638 0.443089,1.04222 0.312799,0.286638 1.09433,0.573276 2.37138,0.859914 1.25078,0.286638 2.13665,0.52116 2.6057,0.755682 0.677508,0.312799 1.17271,0.703464 1.51147,1.19867 0.312594,0.495102 0.494897,1.04222 0.494897,1.69377 0,0.625392 -0.182303,1.22473 -0.547013,1.77194 -0.365017,0.547116 -0.886178,0.990204 -1.53753,1.303 -0.677508,0.312594 -1.43309,0.468942 -2.26705,0.468942 -1.06848,0 -1.98031,-0.156348 -2.68398,-0.468942 -0.729522,-0.312799 -1.303,-0.781843 -1.69367,-1.40724 -0.417133,-0.625392 -0.625392,-1.35502 -0.651553,-2.13665zm16.3384 3.80437l0 0 0 -11.8563 1.56358 0 0 11.8563 -1.56358 0zm-15.8954 22.1754l0 0 0 -11.8303 1.56338 0 0 10.4493 5.81104 0 0 1.38107 -7.37442 0zm-11.6739 -34.0317l0 0 0 1.32886 -3.12696 0 0 3.9087 3.12696 0 0 1.58954c-0.130495,-0.078174 -0.286638,-0.13029 -0.443089,-0.182406 -0.182303,-0.0261606 -0.468942,-0.052116 -0.859812,-0.052116l-1.82406 0 0 5.26372 -0.23442 0 0 -11.8563 3.36138 0zm0 28.4813l0 0 0 4.27351 -0.886075 -2.29311 -2.47531 0 0 -1.27695 2.00626 0 -1.22452 -3.28321c-0.338754,-0.886075 -0.599437,-1.61549 -0.78174,-2.24089l0 -1.45935 0.807696 0 2.55369 6.27998zm-3.36138 -7.00971l0 0 0 -2.16261 0.052116 -0.104335 1.90203 0 -1.77184 2.26694 -0.182303 0zm-66.7606 -21.4716l0 0 1.56338 0 0 6.85326c0,1.19867 -0.130187,2.13665 -0.39087,2.84022 -0.286638,0.703669 -0.75558,1.27695 -1.45915,1.69377 -0.677508,0.443089 -1.53742,0.651348 -2.6059,0.677508l0 -1.43309c0.990102,-0.0261606 1.71983,-0.286638 2.16292,-0.781843 0.494897,-0.52116 0.729624,-1.51126 0.729624,-2.99657l0 -6.85326zm66.7606 0l0 0 0 11.8563 -1.32896 0 0 -11.8563 1.32896 0zm0 19.309l0 0 0 2.16261 -1.01637 0 1.01637 -2.16261zm0 2.89234l0 0 0 1.45935c-0.0262632,-0.0783792 -0.0522186,-0.156451 -0.0522186,-0.208567 -0.156348,0.755682 -0.36471,1.51147 -0.651348,2.24099l-1.3029 3.49167 2.00647 0 0 1.27695 -2.44956 0 -1.27674 3.56995 -1.64176 0 4.50814 -11.8303 0.859914 0zm-69.6532 11.8303l0 0 0 -1.40703c0.443089,-0.052116 0.781843,-0.104335 1.06848,-0.208567 0.442781,-0.130187 0.781535,-0.338754 1.04222,-0.599437 0.390973,-0.36471 0.677611,-0.88587 0.88587,-1.51126 0.208567,-0.625392 0.312901,-1.38107 0.312901,-2.26705 0,-1.25089 -0.208567,-2.18887 -0.625495,-2.86638 -0.39087,-0.677508 -0.886075,-1.12039 -1.45935,-1.32896 -0.286638,-0.104232 -0.703464,-0.182303 -1.22462,-0.234522l0 -1.40713c0.547321,0.0261606 0.990102,0.0782766 1.32896,0.156348 0.677508,0.156451 1.25078,0.443089 1.71973,0.859914 0.625495,0.52116 1.09444,1.19867 1.38128,2.03263 0.312594,0.807798 0.469044,1.74578 0.469044,2.81416 0,0.885972 -0.104232,1.69367 -0.312799,2.37128 -0.208362,0.703669 -0.469044,1.27695 -0.807798,1.74589 -0.312594,0.443089 -0.677508,0.807798 -1.06848,1.06828 -0.390665,0.260683 -0.859914,0.443089 -1.40693,0.599437 -0.390973,0.0780714 -0.807798,0.156348 -1.303,0.182406zm11.5958 -22.1754l0 0 0 -11.8563 1.6156 0 6.17575 9.30251 0 -9.30251 1.51147 0 0 11.8563 -1.6158 0 -6.17575 -9.30281 0 9.30281 -1.51126 0zm16.7553 0l0 0 0 -11.8563 1.56338 0 0 11.8563 -1.56338 0zm12.2472 0l0 0 -4.55995 -11.8563 1.69367 0 3.04889 8.6252c0.260478,0.677303 0.442781,1.32886 0.625392,1.92809 0.182406,-0.651348 0.390665,-1.27674 0.625187,-1.92809l3.17918 -8.6252 1.58954 0 -4.61227 11.8563 -1.58964 0zm12.2213 0l0 0 0 -11.8563 8.52087 0 0 1.40703 -6.95728 0 0 3.62217 6.5145 0 0 1.40703 -6.5145 0 0 4.01283 7.21797 0 0 1.40724 -8.78155 0zm-37.4975 22.1754l0 0 0 -11.8303 8.52097 0 0 1.38097 -6.98355 0 0 3.64822 6.54046 0 0 1.38097 -6.54046 0 0 4.03909 7.24423 0 0 1.38107 -8.78165 0zm28.273 0l0 0 0 -11.8303 2.34512 0 2.78831 8.39068c0.260478,0.781843 0.442781,1.35502 0.547116,1.74599 0.156348,-0.443089 0.364915,-1.06848 0.651553,-1.90234l2.81416 -8.23433 2.08454 0 0 11.8303 -1.48531 0 0 -9.90204 -3.43956 9.90204 -1.40703 0 -3.4136 -10.0845 0 10.0845 -1.48531 0zm-43.5952 -21.9669l0 0c-0.052116,0 -0.104232,0 -0.156348,0 -1.09444,0 -2.00647,-0.208464 -2.70993,-0.573276 -0.703772,-0.39087 -1.19867,-0.938191 -1.48531,-1.66761 -0.312901,-0.729727 -0.469044,-1.71983 -0.469044,-2.97061l0 -6.85326 1.56338 0 0 6.85326c0,1.01606 0.104335,1.77194 0.286638,2.26694 0.182406,0.495102 0.52116,0.859914 0.990102,1.12049 0.443089,0.260478 1.01637,0.416928 1.69387,0.416928 0.104335,0 0.208567,-0.0259554 0.286638,-0.0259554l0 1.43309zm0 10.1366l0 0 0 1.40713c-0.23442,0 -0.495205,-0.0261606 -0.807696,-0.0261606l-2.47551 0 0 9.06829 2.52763 0c0.260375,0 0.52116,-0.0259554 0.75558,-0.0259554l0 1.40703c-0.182303,0 -0.39087,0 -0.573276,0l-4.27351 0 0 -11.8303 4.06505 0c0.286536,0 0.547321,0 0.78174,0z"/>
  <path class="fil2" d="M147.646 34.7874l0 -2.73609c0.964146,-0.052116 1.77194,-0.364915 2.4235,-0.964146 0.729419,-0.625392 1.09444,-1.43319 1.09444,-2.39734l0 -3.9086c-1.35512,0.0259554 -2.52783,0.208362 -3.51793,0.468942l0 -2.73609c1.04222,-0.208567 2.21493,-0.338754 3.51793,-0.416826l0 -3.51793c0,-1.01637 -0.260683,-1.74578 -0.781843,-2.16282 -0.547116,-0.443089 -1.43319,-0.65145 -2.65781,-0.65145l-0.0782766 0 0 -3.02273c0.260683,-0.0261606 0.547321,-0.0261606 0.833959,-0.0261606 2.18877,0 3.80426,0.469147 4.87275,1.38128 1.06848,0.937986 1.58964,2.31906 1.58964,4.19524l0 11.2311c0,0.91203 0.130187,1.64145 0.39087,2.18877 0.286638,0.573276 0.729624,1.09444 1.38107,1.58954l-2.65812 1.32896c-0.23442,0.104232 -0.416826,0.182406 -0.521058,0.208567 -0.0780714,0.0259554 -0.182406,0.052116 -0.260478,0.052116 -0.286638,0 -0.573276,-0.156451 -0.808004,-0.521365 -0.260478,-0.36471 -0.52116,-0.88587 -0.755682,-1.58933 -0.781535,0.703464 -1.61549,1.22462 -2.52752,1.58933 -0.495205,0.182611 -1.01637,0.338754 -1.53742,0.417031zm-37.0807 -22.0712l0 0 0.182611 2.29331c0.990204,-0.729727 2.00647,-1.303 3.04879,-1.66771 1.06838,-0.39087 2.13665,-0.573276 3.20503,-0.573276 1.09444,0 2.1108,0.182406 2.99657,0.599232 0.859914,0.39087 1.6158,0.990204 2.26715,1.77194 1.06848,-0.807798 2.18877,-1.40713 3.33532,-1.7979 1.14655,-0.39087 2.34522,-0.573276 3.57015,-0.573276 1.85002,0 3.2831,0.442884 4.27351,1.38107 0.990102,0.91203 1.48531,2.24089 1.48531,3.93455l0 11.0487c0,1.35512 0.052116,2.44956 0.156143,3.25725 0.0783792,0.781843 0.260683,1.45915 0.469249,2.00647l-5.10747 0c0.208567,-0.573276 0.39087,-1.27674 0.495102,-2.1107 0.104335,-0.833959 0.156451,-1.87618 0.156451,-3.15302l0 -9.51128c0,-1.3027 -0.234522,-2.24089 -0.755888,-2.81416 -0.494897,-0.547321 -1.3027,-0.833959 -2.44925,-0.833959 -0.729624,0 -1.53742,0.208567 -2.44945,0.599437 -0.886075,0.39087 -1.77194,0.937986 -2.6059,1.64165l0 10.9183c0,1.17251 0.052116,2.21503 0.156451,3.04879 0.104232,0.859914 0.286638,1.61549 0.494897,2.21493l-5.10727 0c0.234522,-0.573276 0.39087,-1.27674 0.495205,-2.1107 0.130187,-0.833959 0.182303,-1.87618 0.182303,-3.15302l0 -9.51128c0,-1.27674 -0.260683,-2.21473 -0.729624,-2.788 -0.495,-0.573481 -1.27674,-0.86012 -2.34522,-0.86012 -0.833754,0 -1.69367,0.182509 -2.55379,0.573481 -0.859914,0.36471 -1.71983,0.937986 -2.55348,1.66761l0 10.9183c0,1.35512 0.052116,2.44956 0.156348,3.25725 0.078174,0.781843 0.234522,1.45915 0.469044,2.00647l-5.13343 0c0.23442,-0.52116 0.39087,-1.19867 0.468942,-2.00647 0.104232,-0.78174 0.156451,-1.87618 0.156451,-3.25725l0 -10.8401c0,-0.91203 -0.0522186,-1.69367 -0.156451,-2.37118 -0.0780714,-0.651553 -0.234522,-1.19867 -0.468942,-1.66792l4.19513 -1.53742zm37.0807 0.0261606l0 0 0 3.02273c-1.19867,0 -2.29311,0.208362 -3.28321,0.625392 -1.01637,0.416928 -1.90244,1.06848 -2.68398,1.90223l-0.599437 -1.9284c-0.0259554,-0.130187 -0.0522186,-0.260478 -0.078174,-0.36471 -0.0261606,-0.130187 -0.0261606,-0.260478 -0.0261606,-0.36471 0,-0.677611 0.755888,-1.32916 2.26715,-1.95456 1.3029,-0.547116 2.76205,-0.859914 4.4038,-0.937986zm0 9.77175l0 0 0 2.73609c-0.651348,0.182406 -1.19867,0.416928 -1.69367,0.703566 -1.22483,0.729624 -1.82406,1.74589 -1.82406,3.04868 0,0.912236 0.286638,1.64176 0.88587,2.21503 0.599437,0.547218 1.40724,0.833856 2.37138,0.833856 0.0780714,0 0.182406,0 0.260478,0l0 2.73609c-0.443089,0.078174 -0.88587,0.104335 -1.35512,0.104335 -1.77194,0 -3.17887,-0.495205 -4.19524,-1.45935 -1.01626,-0.990204 -1.51126,-2.31927 -1.51126,-3.98688 0,-2.29311 0.859914,-4.01293 2.57974,-5.2116 1.12029,-0.781843 2.6056,-1.35512 4.48188,-1.71983z"/>
  <path class="fil0" d="M49.5379 0c0,3.28331 -2.03232,7.03566 -6.12353,11.2311 -3.59601,3.4135 -6.85326,6.80114 -9.79771,10.1365 -2.94466,3.36148 -5.62863,8.3124 -8.05193,14.8791 -2.44956,6.56662 -4.82094,11.4394 -7.11404,14.5926l-2.293 -14.3841 -6.54046 -5.5243 -1.14655 -13.7847 -8.4429 -7.29635 0 -0.990102c-0.521058,-2.89234 6.14979,-4.79467 19.9604,-5.7067 16.3905,-1.3029 25.589,-2.37118 27.6476,-3.15302l1.90213 0z"/>
  <path class="fil0" d="M96.0776 11.6218c-7.37442,126.85 0.208259,52.95 -12.482,53.4973 -7.47855,0.338754 -1.51126,-23.0353 -1.51126,-33.4586 0,-8.75549 -4.45592,-15.6609 -3.02273,-21.4979l17.016 1.45915z"/>
 </g>
</svg>
